<svg width="100%" height="100%" viewBox="0 0 512 512" version="1.1" xmlns="http://www.w3.org/2000/svg"
     style="fill-rule:evenodd;clip-rule:evenodd;stroke-linejoin:round;stroke-miterlimit:2;">
    <defs>
        <filter id="soft" x="-50%" y="-50%" width="200%" height="200%">
            <feGaussianBlur stdDeviation="12" result="blur"/>
        </filter>
        <path id="petal" d="M0,0C70,-10 140,-170 0,-260C-140,-170 -70,-10 0,0Z"
              style="fill:rgb(255,137,4);fill-opacity:0.5;fill-rule:nonzero;"/>
    </defs>
    <g transform="matrix(0.962206,0,0,0.962206,256,336.835)">
        <g>
            <g transform="matrix(-0.0871557,-0.996195,0.996195,-0.0871557,0,-1.13687e-13)">
                <use href="#petal"/>
            </g>
            <g transform="matrix(0.615661,-0.788011,0.788011,0.615661,0,-1.13687e-13)">
                <use href="#petal"/>
            </g>
            <use href="#petal"/>
            <g transform="matrix(0.615661,0.788011,-0.788011,0.615661,0,-1.13687e-13)">
                <use href="#petal"/>
            </g>
            <g transform="matrix(-0.0871557,0.996195,-0.996195,-0.0871557,0,-1.13687e-13)">
                <use href="#petal"/>
            </g>
        </g>
        <g filter="url(#soft)" opacity="0.5" fill="rgb(255,137,4);">
            <g transform="matrix(-0.0871557,-0.996195,0.996195,-0.0871557,0,-1.13687e-13)">
                <use href="#petal"/>
            </g>
            <g transform="matrix(0.615661,-0.788011,0.788011,0.615661,0,-1.13687e-13)">
                <use href="#petal"/>
            </g>
            <use href="#petal"/>
            <g transform="matrix(0.615661,0.788011,-0.788011,0.615661,0,-1.13687e-13)">
                <use href="#petal"/>
            </g>
            <g transform="matrix(-0.0871557,0.996195,-0.996195,-0.0871557,0,-1.13687e-13)">
                <use href="#petal"/>
            </g>
        </g>
    </g>
</svg>